HIERARCHY
ROOT ROOT
{
	OFFSET 0.000000 56.020000 -5.659234
	CHANNELS 6 Xposition Yposition Zposition Xrotation Yrotation Zrotation 
	JOINT C_spine0001_bind_JNT
	{
		OFFSET 0.000000 1.618999 0.000000
		CHANNELS 3 Xrotation Yrotation Zrotation
		JOINT C_spine0002_bind_JNT
		{
			OFFSET 0.000000 4.942001 0.000001
			CHANNELS 3 Xrotation Yrotation Zrotation
			JOINT C_spine0003_bind_JNT
			{
				OFFSET 0.000000 4.942001 -0.000000
				CHANNELS 3 Xrotation Yrotation Zrotation
				JOINT C_neck0001_bind_JNT
				{
					OFFSET 0.000000 17.026009 -0.000000
					CHANNELS 3 Xrotation Yrotation Zrotation
					JOINT C_neck0002_bind_JNT
					{
						OFFSET 0.000000 3.249985 0.000000
						CHANNELS 3 Xrotation Yrotation Zrotation
						JOINT C_head_bind_JNT
						{
							OFFSET 0.000000 5.278008 0.000000
							CHANNELS 3 Xrotation Yrotation Zrotation
							End Site
							{
								OFFSET 0.000000 0.000000 0.000000
							}
						}
					}
				}
				JOINT L_clavicle_bind_JNT
				{
					OFFSET 4.590000 12.067001 0.834000
					CHANNELS 3 Xrotation Yrotation Zrotation
					JOINT L_armUpper0001_bind_JNT
					{
						OFFSET 7.812635 0.512001 -3.452945
						CHANNELS 3 Xrotation Yrotation Zrotation
						JOINT L_armLower0001_bind_JNT
						{
							OFFSET 15.265892 -6.552116 -0.058157
							CHANNELS 3 Xrotation Yrotation Zrotation
							JOINT L_hand0001_bind_JNT
							{
								OFFSET 14.747667 -6.369995 5.049225
								CHANNELS 3 Xrotation Yrotation Zrotation
								End Site
								{
									OFFSET 0.000000 0.000000 0.000000
								}
							}
						}
					}
				}
				JOINT R_clavicle_bind_JNT
				{
					OFFSET -4.590000 12.067001 0.834000
					CHANNELS 3 Xrotation Yrotation Zrotation
					JOINT R_armUpper0001_bind_JNT
					{
						OFFSET -7.812635 0.512001 -3.452945
						CHANNELS 3 Xrotation Yrotation Zrotation
						JOINT R_armLower0001_bind_JNT
						{
							OFFSET -15.265890 -6.552124 -0.058160
							CHANNELS 3 Xrotation Yrotation Zrotation
							JOINT R_hand0001_bind_JNT
							{
								OFFSET -14.746784 -6.369629 5.048937
								CHANNELS 3 Xrotation Yrotation Zrotation
								End Site
								{
									OFFSET 0.000000 0.000000 0.000000
								}
							}
						}
					}
				}
			}
		}
	}
	JOINT C_pelvis0001_bind_JNT
	{
		OFFSET -0.000000 0.000000 0.000000
		CHANNELS 3 Xrotation Yrotation Zrotation
		JOINT L_legUpper0001_bind_JNT
		{
			OFFSET 6.599999 -6.027000 0.539000
			CHANNELS 3 Xrotation Yrotation Zrotation
			JOINT L_legLower0001_bind_JNT
			{
				OFFSET -0.140713 -19.187443 0.040261
				CHANNELS 3 Xrotation Yrotation Zrotation
				JOINT L_foot0001_bind_JNT
				{
					OFFSET -0.132215 -18.028637 -1.138370
					CHANNELS 3 Xrotation Yrotation Zrotation
					JOINT L_foot0002_bind_JNT
					{
						OFFSET 0.007014 -4.693133 9.886524
						CHANNELS 3 Xrotation Yrotation Zrotation
						End Site
						{
							OFFSET 0.000000 0.000000 0.000000
						}
					}
				}
			}
		}
		JOINT R_legUpper0001_bind_JNT
		{
			OFFSET -6.599999 -6.027000 0.539000
			CHANNELS 3 Xrotation Yrotation Zrotation
			JOINT R_legLower0001_bind_JNT
			{
				OFFSET 0.140710 -19.187164 0.040550
				CHANNELS 3 Xrotation Yrotation Zrotation
				JOINT R_foot0001_bind_JNT
				{
					OFFSET 0.132215 -18.028633 -1.138362
					CHANNELS 3 Xrotation Yrotation Zrotation
					JOINT R_foot0002_bind_JNT
					{
						OFFSET -0.007014 -4.693128 9.886505
						CHANNELS 3 Xrotation Yrotation Zrotation
						End Site
						{
							OFFSET 0.000000 0.000000 0.000000
						}
					}
				}
			}
		}
	}
}
MOTION
Frames: 13
Frame Time: 0.033333
-7.930928 48.057705 59.380665 0.004225 -5.018318 -0.028275 -2.276403 7.094891 0.005760 6.993850 -2.634501 6.637108 3.012136 -2.833519 2.027861 -0.140521 0.380174 1.247304 0.556640 1.763283 -1.624596 4.446447 0.387699 -1.074268 1.890748 10.571875 -2.672354 -12.341846 -7.897405 -67.240387 15.229844 1.259836 0.325188 -16.906748 -28.344120 -30.013800 3.420527 -9.312818 4.314584 -11.415635 5.305773 69.315269 -9.453633 -21.545042 20.732294 -59.327206 25.997787 15.373325 -0.421939 8.272922 0.291129 7.878798 -0.078487 -2.045100 31.398726 4.239939 -3.951245 5.325981 3.959662 5.656285 -34.257130 1.301136 -0.879422 -7.108420 -1.407075 6.631342 11.104321 2.411764 -1.086563 -4.477437 -9.331196 -4.958795 -0.300106 -0.029356 -0.267085
-8.494112 48.079201 60.572376 0.006072 -4.469829 -0.036681 -2.779913 6.990626 0.258966 7.515800 -2.389998 6.430491 3.179715 -2.567414 1.869600 -0.437706 0.547554 1.240083 0.748493 1.509560 -1.601551 5.104432 0.460130 -1.786812 1.521907 10.712285 -2.799316 -11.991377 -7.537779 -67.229782 15.153766 1.396512 0.495812 -16.371761 -28.548048 -29.970995 2.837727 -9.022343 4.012719 -11.720665 5.580670 69.615196 -9.621392 -21.435549 21.466602 -59.579750 26.107218 14.277400 -0.927075 8.082231 0.455746 4.059518 0.633503 -1.121582 38.053593 4.469394 -4.342020 5.905176 4.027120 5.001304 -31.241167 1.235496 -0.809981 -4.576149 -1.342829 7.590933 10.170859 2.489164 -1.307338 -5.313663 -9.220271 -5.660447 -0.412299 -0.022289 -0.414744
-8.973611 48.142117 61.662106 0.011759 -4.222083 -0.028327 -3.099497 7.240709 0.611495 7.654576 -2.156795 6.052081 3.327950 -2.368869 1.678102 -0.354385 0.585567 1.390081 0.726370 1.322767 -1.767492 5.551949 0.673229 -2.157117 1.659723 10.923569 -2.938497 -11.803093 -7.406551 -66.964142 15.158116 1.134088 0.452186 -16.804041 -28.642675 -29.778547 2.622798 -8.757898 4.034776 -12.082328 5.902225 69.792145 -9.879419 -21.066080 21.679718 -59.313374 25.939789 12.924672 -1.126289 8.351838 0.768123 0.067200 1.126382 -0.694593 43.330254 4.764019 -4.842777 6.111096 4.521943 4.636414 -27.360203 1.045734 -0.780427 -2.782306 -1.121301 7.886715 9.644247 2.471107 -1.254053 -6.082073 -9.126611 -6.313850 -0.738186 -0.011840 -0.274443
-9.461386 48.197964 62.738274 0.000191 -3.961050 -0.038232 -3.255941 7.246713 1.081203 7.852433 -1.743004 5.455517 3.358163 -1.854109 1.571780 -0.306937 0.523032 1.257151 0.720314 0.889571 -1.747423 5.674679 0.548318 -2.769141 1.493680 10.882677 -3.055768 -11.496754 -6.985761 -66.862511 14.981664 1.275124 0.509179 -16.802143 -28.859829 -29.633963 2.103054 -8.461595 3.708403 -12.446756 6.441963 70.385132 -10.217422 -20.853271 21.959196 -59.401196 26.339256 11.412612 -1.360926 8.293419 1.064012 -4.412012 1.697338 0.061171 48.358727 4.840134 -5.596319 5.646269 4.728215 4.713934 -23.416161 0.962906 -0.881327 -0.608176 -0.832053 8.569228 8.762527 2.317878 -1.568376 -6.850685 -8.812791 -6.757390 -0.880249 -0.050235 -0.390262
-9.891200 48.271255 63.590015 0.015230 -3.732915 -0.027647 -3.718403 7.199302 1.628243 8.052281 -1.249842 4.891003 3.634624 -1.621382 1.212882 -0.242242 0.651896 1.431421 0.730179 0.340175 -1.875558 5.902168 0.582824 -3.095704 1.730631 10.996403 -3.259580 -11.501122 -6.750513 -66.766350 14.790576 1.318176 0.851719 -17.410463 -29.137848 -29.509548 1.634313 -7.987939 3.806689 -12.671276 6.628240 70.599442 -10.510802 -20.413826 21.762768 -59.335392 26.514885 10.000681 -1.739999 8.263172 1.546458 -7.864016 2.239073 0.182065 51.480080 5.135903 -5.778993 4.462471 5.052451 4.525318 -21.037123 0.869891 -0.823215 0.886675 -0.581572 8.801720 9.699837 2.402015 -1.849309 -6.768933 -9.032100 -7.219150 -1.024861 0.026957 -0.217224
-10.338842 48.300461 64.307083 0.006990 -3.673925 -0.028677 -3.863898 7.323494 2.121592 8.355124 -0.905216 4.176758 3.601159 -1.132444 1.059982 -0.318216 0.493888 1.240070 0.661033 -0.048229 -1.793000 6.103183 0.721769 -3.269861 1.788259 11.331691 -3.669071 -11.432911 -6.648538 -66.484253 14.381492 1.604023 0.941211 -18.022182 -29.491266 -29.694454 1.316951 -7.460790 3.721335 -12.986501 7.016860 70.973961 -10.697560 -20.122606 21.743641 -59.089909 26.729622 8.807084 -2.055919 8.540759 2.103914 -11.203952 2.467394 0.327816 53.086792 5.312119 -6.163418 2.920956 5.544463 4.373471 -19.688883 0.820773 -0.914695 2.014230 -0.503834 8.999478 9.126703 2.133920 -1.973321 -6.361196 -8.786317 -7.666719 -0.704247 -0.017642 -0.390785
-10.767996 48.388718 65.040558 0.010906 -3.505147 -0.029167 -4.365852 7.249857 2.675321 8.679099 -0.411658 3.477021 3.821131 -0.689351 0.772667 -0.281592 0.511593 1.207170 0.516799 -0.645136 -1.773991 6.388606 0.747973 -3.636285 2.136651 11.520213 -3.905803 -11.427405 -6.450466 -66.411858 13.572048 1.943000 1.283905 -19.236816 -29.741505 -30.056454 0.892965 -7.330075 3.714082 -13.239731 7.470617 70.833687 -10.568895 -19.859102 21.851665 -58.461834 26.400675 7.570677 -2.302323 8.398259 2.727638 -14.241250 2.710044 0.050039 53.085678 5.923184 -6.355372 1.759829 5.799823 4.687814 -19.167700 0.649344 -0.976620 3.205052 -0.236436 8.967929 8.457052 2.277121 -1.908971 -5.868842 -8.893543 -8.364552 -0.745187 -0.056714 -0.217287
-11.122298 48.443501 65.706276 0.007255 -3.635287 -0.029286 -4.510790 7.508523 2.925364 8.842171 0.003189 2.853539 3.852136 -0.392015 0.543438 -0.292250 0.494903 1.147923 0.435615 -0.941808 -1.662138 6.382121 0.590747 -3.721120 2.363585 11.992824 -4.091165 -11.091449 -6.382865 -66.035393 12.779484 2.139823 1.332310 -19.928286 -29.917337 -30.532324 0.802382 -7.160386 3.536272 -13.632182 7.795119 70.996185 -10.114059 -19.698191 22.118584 -57.830170 25.922962 6.695936 -2.507053 8.551060 3.002219 -16.982943 2.252131 -0.078614 51.774952 6.103661 -6.537533 0.903938 6.209810 5.210547 -17.712488 0.732454 -1.058520 4.336389 -0.074873 9.140708 7.665570 2.068240 -1.764542 -5.338203 -8.583260 -8.861414 -0.428987 -0.144077 -0.230643
-11.429609 48.485439 66.302544 0.005956 -3.414040 -0.029453 -4.675485 7.509958 3.380111 9.199242 0.248932 2.205731 3.816265 0.000515 0.155194 -0.162667 0.400664 1.069521 0.265884 -1.689375 -1.552566 6.192281 0.703356 -3.902071 2.838182 12.143540 -4.210836 -10.967064 -6.113304 -65.749969 11.963977 2.356298 1.269454 -20.751825 -29.999292 -30.613415 0.484954 -7.050702 3.297779 -13.663633 7.889136 70.829880 -9.460098 -18.975220 22.535900 -57.238384 25.123919 5.968423 -2.363914 8.406967 3.208964 -18.986357 1.901591 -0.257895 48.788338 6.479718 -5.959643 0.082546 5.989583 5.216543 -14.689002 0.791110 -1.279922 5.110370 -0.007565 9.286063 7.004289 2.288151 -1.744779 -4.988384 -8.490363 -9.241708 -0.447760 -0.142562 -0.130667
-11.711895 48.433361 66.760345 0.013225 -3.515305 -0.021289 -4.594957 7.406190 3.629559 9.341335 0.673310 1.388571 3.931367 0.306638 -0.133493 -0.090569 0.637649 0.917475 0.278088 -2.376389 -1.435390 5.634921 0.649025 -3.840246 3.156789 12.479204 -4.337494 -10.687421 -5.683168 -65.116394 10.723365 2.623248 0.697981 -21.225986 -30.199516 -30.878857 0.337547 -6.751614 3.239316 -13.584751 7.721827 70.537811 -8.750456 -18.020386 23.147333 -56.295181 24.014259 5.649598 -2.466552 8.421557 3.287466 -20.956999 1.448058 -0.246636 43.947002 6.400747 -4.902203 -0.151485 5.777051 4.577337 -9.666834 0.580042 -0.992043 5.802512 -0.143477 9.646698 6.574414 2.564928 -1.910566 -4.752846 -8.116194 -9.574261 -0.188229 -0.288973 -0.134703
-11.945636 48.413342 67.186371 0.000321 -3.180656 -0.026001 -4.524551 7.030480 3.856386 9.619189 1.034830 0.711924 3.895004 0.794326 -0.473025 0.012410 0.399368 0.623334 0.157317 -3.127978 -1.305389 5.352927 0.830583 -3.863051 3.618661 12.841632 -4.589791 -10.587134 -5.429931 -64.458138 9.416588 3.656059 0.118837 -22.283327 -31.106834 -31.870089 0.198695 -6.690728 2.873214 -13.442405 7.642515 70.139122 -8.055141 -16.792961 23.546583 -55.257484 22.642189 5.832600 -2.242613 7.914746 3.295129 -21.734951 1.553865 -0.409825 37.311817 6.072488 -3.593502 -0.101124 5.265219 3.541868 -5.080161 0.439882 -0.808900 6.239688 0.170706 9.858456 6.203087 2.737530 -1.802678 -4.619276 -8.097045 -10.020135 -0.291872 -0.159027 -0.109148
-12.104511 48.379295 67.499680 0.010712 -3.194868 -0.024912 -4.285018 6.973475 3.994299 9.742620 1.350637 0.028754 3.919238 1.088095 -0.884579 -0.020773 0.544702 0.435965 0.223589 -3.962893 -1.174606 4.558138 0.839311 -3.539262 4.124594 13.246639 -4.792568 -10.449838 -4.732936 -63.800316 7.869392 4.161090 -0.662459 -23.273411 -31.750710 -32.707611 0.053022 -6.438384 2.847020 -13.015751 7.253916 69.572563 -7.253030 -15.142101 23.699648 -53.804703 21.261168 6.254112 -1.742370 7.963203 3.257620 -22.108093 1.318801 -0.586600 28.842091 5.240778 -2.496712 1.628248 5.025029 1.979536 -1.711709 0.272049 -0.417716 5.978142 -0.048019 9.834517 6.268294 2.918475 -1.581297 -5.193782 -7.515010 -10.231624 -0.004651 -0.328689 -0.128928
-12.188145 48.339989 67.954025 0.008177 -2.786085 -0.024047 -4.065907 6.647801 4.106878 9.799937 1.562962 -0.678473 3.996009 1.488391 -1.212336 0.055564 0.302123 0.128100 0.124994 -4.533278 -0.922516 3.919444 0.909168 -3.310848 4.465056 13.511946 -4.794336 -10.074271 -4.088557 -63.145676 6.453916 5.030725 -1.356200 -24.493109 -32.439743 -34.093494 -0.050191 -6.446079 2.440601 -12.763901 7.167943 69.224472 -6.638649 -13.476862 23.657698 -51.905746 19.824196 6.780535 -1.599243 7.405237 3.092750 -21.195091 1.288069 -0.479518 20.359886 4.245978 -1.434959 2.946415 4.639533 -0.125380 -0.934540 0.031527 -0.561412 6.438953 -0.000426 10.128131 6.138356 3.261250 -1.554090 -5.556142 -7.424712 -10.532232 0.389210 -0.082711 -0.082820
